<svg width="48" height="48" viewBox="0 0 48 48" fill="none" xmlns="http://www.w3.org/2000/svg">
<path fill-rule="evenodd" clip-rule="evenodd" d="M19.8442 13.977C20.9195 13.9275 21.2623 13.9165 24.0013 13.9165C26.7403 13.9165 27.0831 13.9284 28.1575 13.977C29.2318 14.0256 29.9651 14.197 30.6068 14.4454C31.2787 14.6993 31.8883 15.0963 32.3925 15.6096C32.9058 16.1128 33.3018 16.7215 33.5548 17.3943C33.8041 18.036 33.9746 18.7693 34.0241 19.8418C34.0736 20.9189 34.0846 21.2618 34.0846 23.9998C34.0846 26.7388 34.0727 27.0817 34.0241 28.1569C33.9756 29.2294 33.8041 29.9628 33.5548 30.6044C33.3018 31.2773 32.9051 31.887 32.3925 32.391C31.8883 32.9043 31.2787 33.3003 30.6068 33.5533C29.9651 33.8027 29.2318 33.9732 28.1593 34.0227C27.0831 34.0722 26.7403 34.0832 24.0013 34.0832C21.2623 34.0832 20.9195 34.0713 19.8442 34.0227C18.7717 33.9741 18.0384 33.8027 17.3967 33.5533C16.7238 33.3003 16.1141 32.9037 15.6101 32.391C15.0972 31.8874 14.7002 31.2781 14.4469 30.6053C14.1985 29.9637 14.028 29.2303 13.9785 28.1578C13.929 27.0808 13.918 26.7379 13.918 23.9998C13.918 21.2608 13.9299 20.918 13.9785 19.8437C14.0271 18.7693 14.1985 18.036 14.4469 17.3943C14.7005 16.7216 15.0978 16.1122 15.6111 15.6087C16.1143 15.0958 16.7234 14.6988 17.3958 14.4454C18.0375 14.197 18.7708 14.0265 19.8433 13.977H19.8442ZM28.0759 15.792C27.0126 15.7434 26.6936 15.7333 24.0013 15.7333C21.3091 15.7333 20.9901 15.7434 19.9267 15.792C18.9431 15.8369 18.4096 16.001 18.054 16.1394C17.5837 16.3228 17.2473 16.54 16.8944 16.8929C16.5598 17.2184 16.3024 17.6146 16.1409 18.0525C16.0025 18.4082 15.8384 18.9417 15.7935 19.9253C15.7449 20.9886 15.7348 21.3076 15.7348 23.9998C15.7348 26.6921 15.7449 27.0111 15.7935 28.0744C15.8384 29.058 16.0025 29.5915 16.1409 29.9472C16.3022 30.3844 16.5598 30.7813 16.8944 31.1068C17.2198 31.4413 17.6167 31.6989 18.054 31.8603C18.4096 31.9987 18.9431 32.1628 19.9267 32.2077C20.9901 32.2563 21.3081 32.2663 24.0013 32.2663C26.6945 32.2663 27.0126 32.2563 28.0759 32.2077C29.0595 32.1628 29.593 31.9987 29.9486 31.8603C30.4189 31.6769 30.7553 31.4597 31.1082 31.1068C31.4428 30.7813 31.7004 30.3844 31.8617 29.9472C32.0001 29.5915 32.1642 29.058 32.2091 28.0744C32.2577 27.0111 32.2678 26.6921 32.2678 23.9998C32.2678 21.3076 32.2577 20.9886 32.2091 19.9253C32.1642 18.9417 32.0001 18.4082 31.8617 18.0525C31.6784 17.5823 31.4611 17.2458 31.1082 16.8929C30.7827 16.5584 30.3865 16.3009 29.9486 16.1394C29.593 16.001 29.0595 15.8369 28.0759 15.792ZM22.7134 27.1083C23.4327 27.4077 24.2336 27.4481 24.9793 27.2226C25.7251 26.9971 26.3694 26.5197 26.8023 25.8719C27.2351 25.2241 27.4297 24.4461 27.3527 23.6708C27.2757 22.8956 26.9319 22.1711 26.3801 21.6211C26.0283 21.2695 25.6029 21.0003 25.1346 20.8329C24.6663 20.6654 24.1667 20.6039 23.6718 20.6527C23.1768 20.7016 22.6989 20.8595 22.2723 21.1152C21.8457 21.3709 21.4812 21.718 21.2048 22.1315C20.9285 22.545 20.7473 23.0147 20.6743 23.5066C20.6012 23.9986 20.6382 24.5006 20.7825 24.9766C20.9267 25.4525 21.1747 25.8906 21.5086 26.2592C21.8425 26.6278 22.254 26.9178 22.7134 27.1083ZM20.3365 20.335C20.8177 19.8537 21.3891 19.472 22.0179 19.2115C22.6467 18.951 23.3207 18.817 24.0013 18.817C24.6819 18.817 25.3559 18.951 25.9847 19.2115C26.6135 19.472 27.1849 19.8537 27.6661 20.335C28.1474 20.8163 28.5292 21.3876 28.7896 22.0164C29.0501 22.6453 29.1842 23.3192 29.1842 23.9998C29.1842 24.6805 29.0501 25.3544 28.7896 25.9832C28.5292 26.612 28.1474 27.1834 27.6661 27.6647C26.6942 28.6366 25.3759 29.1827 24.0013 29.1827C22.6267 29.1827 21.3084 28.6366 20.3365 27.6647C19.3645 26.6927 18.8184 25.3744 18.8184 23.9998C18.8184 22.6253 19.3645 21.307 20.3365 20.335ZM30.3336 19.5888C30.4529 19.4763 30.5484 19.341 30.6144 19.191C30.6805 19.0409 30.7157 18.8791 30.7181 18.7152C30.7205 18.5513 30.69 18.3885 30.6283 18.2366C30.5667 18.0847 30.4752 17.9466 30.3593 17.8307C30.2433 17.7148 30.1053 17.6233 29.9534 17.5616C29.8015 17.5 29.6387 17.4695 29.4748 17.4719C29.3108 17.4743 29.1491 17.5095 28.999 17.5756C28.8489 17.6416 28.7136 17.7371 28.6011 17.8563C28.3823 18.0883 28.2625 18.3964 28.2672 18.7152C28.2718 19.034 28.4006 19.3385 28.626 19.5639C28.8515 19.7894 29.156 19.9181 29.4748 19.9228C29.7936 19.9274 30.1017 19.8076 30.3336 19.5888Z" fill="#0B1827"/>
<rect x="0.5" y="0.5" width="47" height="47" rx="23.5" stroke="#1F1F21"/>
</svg>
