<svg width="48" height="48" viewBox="0 0 48 48" fill="none" xmlns="http://www.w3.org/2000/svg">
<path fill-rule="evenodd" clip-rule="evenodd" d="M29.0405 26.1835C28.7661 26.0469 27.4204 25.3888 27.1698 25.2971C26.9193 25.2064 26.7369 25.1614 26.5536 25.4346C26.3713 25.7059 25.8472 26.3201 25.6878 26.5016C25.5276 26.684 25.3682 26.706 25.0946 26.5703C24.8211 26.4328 23.9387 26.1459 22.8933 25.2183C22.08 24.4959 21.5301 23.604 21.3707 23.3309C21.2114 23.0586 21.3532 22.911 21.4905 22.7754C21.6139 22.6534 21.764 22.4573 21.9013 22.2987C22.0385 22.1392 22.0836 22.0255 22.1748 21.8431C22.2669 21.6616 22.2209 21.503 22.1518 21.3664C22.0836 21.2299 21.5365 19.8888 21.3081 19.3434C21.0861 18.8126 20.8604 18.885 20.6928 18.8759C20.5325 18.8685 20.3502 18.8667 20.1678 18.8667C19.9854 18.8667 19.6888 18.9345 19.4383 19.2077C19.1869 19.4799 18.4804 20.139 18.4804 21.4801C18.4804 22.8203 19.4604 24.1155 19.5977 24.2979C19.7349 24.4794 21.5273 27.2313 24.273 28.411C24.927 28.6915 25.4364 28.8593 25.8333 28.9839C26.4892 29.192 27.086 29.1627 27.5576 29.0921C28.0826 29.0142 29.1769 28.433 29.4053 27.7968C29.6328 27.1607 29.6328 26.6153 29.5646 26.5016C29.4965 26.3879 29.3141 26.3201 29.0396 26.1835H29.0405ZM24.0465 32.9696H24.0428C22.4119 32.9699 20.8111 32.5336 19.4079 31.7064L19.0763 31.5103L15.6296 32.4104L16.5498 29.0664L16.3334 28.7236C15.4216 27.2792 14.9391 25.6076 14.9416 23.9019C14.9434 18.9061 19.0275 14.8416 24.0501 14.8416C26.4818 14.8416 28.7679 15.7858 30.4866 17.4981C31.3344 18.3383 32.0063 19.3375 32.4635 20.4378C32.9207 21.5381 33.1542 22.7177 33.1504 23.9084C33.1486 28.9042 29.0645 32.9696 24.0465 32.9696ZM31.7946 16.1974C30.7797 15.1807 29.5722 14.3746 28.242 13.8258C26.9119 13.2769 25.4855 12.9963 24.0455 13C18.0088 13 13.0939 17.8904 13.0921 23.901C13.0912 25.8223 13.595 27.6978 14.5538 29.3506L13 35L18.8064 33.4838C20.4127 34.3548 22.2127 34.8111 24.0419 34.8112H24.0465C30.0832 34.8112 34.9981 29.9208 34.9999 23.9093C35.0044 22.4768 34.7234 21.0576 34.1732 19.7339C33.623 18.4102 32.8145 17.2081 31.7946 16.1974Z" fill="#0B1827"/>
<rect x="0.5" y="0.5" width="47" height="47" rx="23.5" stroke="#1F1F21"/>
</svg>
